<svg width="216" height="178" viewBox="0 0 216 178" fill="none" xmlns="http://www.w3.org/2000/svg">
<path d="M40.9959 67.8446C46.7996 67.8756 51.715 67.7786 56.6136 67.9606C64.9228 68.2353 73.1166 68.8765 80.8056 72.6422C88.6028 76.4703 92.8387 82.7168 92.6458 91.2176C92.5192 96.4369 90.9768 101.608 89.884 106.751C89.4461 108.76 88.435 110.678 87.3471 113.562C91.4289 111.492 94.6096 109.816 97.8569 108.275C105.776 104.476 113.547 100.35 121.675 97.1042C132.791 92.6005 141.234 96.5608 145.37 107.897C146.988 112.344 147.535 117.23 148.522 121.938C148.81 123.355 148.891 124.798 149.106 126.509C154.792 120.41 160.111 114.532 165.619 108.908C178.484 95.7912 190.513 103.457 195.385 115.268C196.689 118.426 197.242 121.969 197.821 125.382C198.131 127.678 197.196 129.881 194.657 130.195C192.361 130.506 191.201 128.681 190.58 126.59C189.938 124.536 189.431 122.415 188.576 120.478C187.573 118.215 186.534 115.931 185.107 113.904C181.08 108.212 176.65 107.386 171.162 111.723C167.283 114.776 163.835 118.414 160.393 121.96C157.189 125.258 154.125 128.733 151.06 132.208C149.46 133.979 147.788 135.708 145.191 135.123C142.207 134.458 141.712 131.815 141.243 129.379C140.626 126.28 140.48 123.117 139.692 120.064C138.748 116.199 137.711 112.329 136.192 108.709C134.116 103.806 131.362 102.409 126.219 103.817C121.303 105.165 116.35 106.828 111.705 108.957C101.777 113.569 92.0541 118.493 82.3107 123.452C80.0005 124.62 77.9153 125.148 75.892 123.403C73.9561 121.756 74.2914 119.592 75.1485 117.44C76.685 113.613 78.4075 109.796 79.7427 105.9C80.9001 102.478 82.027 98.9432 82.539 95.3898C83.9302 85.8969 80.5837 80.6932 71.6161 77.3921C64.8776 74.8969 57.8693 73.7856 50.7331 73.5626C45.5916 73.3846 40.4485 73.5426 35.3319 73.5715C32.6237 73.5956 29.8225 73.6142 28.6061 70.5543C27.4923 67.6501 29.2282 65.4768 31.0306 63.4382C31.8096 62.589 32.7121 61.8591 33.5786 61.1084C35.3475 59.6279 37.0498 58.0126 38.9575 56.7084C53.0792 46.9156 55.0367 33.2752 51.141 17.9394C50.4145 15.1144 48.7982 12.4972 47.5026 9.82469C46.8728 8.49884 45.8237 7.31583 45.3647 5.94422C45.0125 4.97104 44.9213 3.37884 45.4976 2.7974C46.1155 2.14379 47.6869 2.08877 48.653 2.16543C50.7504 2.36598 52.8626 3.87418 54.0753 5.44036C56.4647 8.5519 58.7442 11.9368 60.1132 15.5658C63.1783 23.5901 63.642 32.037 62.6065 40.5805C61.7213 47.8637 57.9591 53.6301 52.6508 58.4077C49.1434 61.4826 45.4307 64.2466 40.9959 67.8446Z" fill="black"/>
</svg>
